<?xml version="1.0" encoding="UTF-8"?>
<svg viewBox="0 0 113.334 20" xmlns="http://www.w3.org/2000/svg">
  <g>
    <path d="M 0 0 L 113.333 0 L 113.333 20 L 0 20 Z" fill="transparent"/>
    <path d="M 5.017 11.854 L 10.034 19.844 L 10.034 9.174 L 0 3.812 Z M 14.271 9.173 L 14.271 19.844 L 19.288 11.854 L 24.305 3.812 L 14.271 9.172 Z M 2.118 0.409 L 12.153 5.771 L 22.187 0.409 Z" fill="rgb(17, 17, 17)"/>
    <path d="M 40.86 5.923 L 40.86 17.47 L 37.404 17.47 L 37.404 5.923 L 32.61 5.923 L 32.61 2.984 L 45.598 2.984 L 45.598 5.923 Z M 68.008 17.47 L 68.008 17.47 L 68.008 17.47 Z M 68.008 17.47 L 63.995 17.47 L 60.65 12.83 L 57.918 12.83 L 57.918 17.47 L 54.462 17.47 L 54.462 9.995 L 61.43 9.995 C 62.128 10.049 62.821 9.847 63.382 9.428 C 63.827 9.067 64.05 8.5 64.05 7.934 L 64.05 7.882 C 64.106 7.315 63.827 6.696 63.325 6.335 C 62.712 5.975 62.043 5.768 61.318 5.82 L 54.462 5.82 L 54.462 2.932 L 61.653 2.932 C 63.493 2.932 64.942 3.397 66.001 4.222 C 67.061 5.047 67.562 6.232 67.562 7.727 L 67.562 7.779 C 67.615 8.825 67.277 9.854 66.614 10.666 C 65.946 11.439 65.109 12.006 64.162 12.315 Z M 89.694 14.016 C 89.415 14.79 88.913 15.512 88.3 16.078 C 87.686 16.645 86.962 17.058 86.126 17.315 C 85.234 17.625 84.231 17.728 83.283 17.728 C 81.164 17.728 79.548 17.212 78.321 16.13 C 77.095 15.047 76.481 13.449 76.481 11.284 L 76.481 2.984 L 79.938 2.984 L 79.938 11.233 C 79.938 12.418 80.217 13.294 80.83 13.913 C 81.499 14.532 82.391 14.841 83.339 14.79 C 84.286 14.841 85.178 14.532 85.847 13.913 C 86.46 13.294 86.739 12.418 86.739 11.284 L 86.739 2.984 L 90.195 2.984 L 90.195 11.181 C 90.251 12.161 90.084 13.14 89.694 14.016 Z M 113.334 11.185 C 113.334 12.164 113.166 13.144 112.832 14.02 C 112.554 14.793 112.052 15.515 111.438 16.082 C 110.825 16.649 110.101 17.062 109.265 17.319 C 108.372 17.629 107.369 17.732 106.421 17.732 C 104.303 17.732 102.686 17.216 101.46 16.134 C 100.234 15.051 99.62 13.453 99.62 11.288 L 99.62 2.988 L 103.077 2.988 L 103.077 11.237 C 103.077 12.422 103.355 13.298 103.969 13.917 C 104.637 14.535 105.53 14.845 106.477 14.793 C 107.425 14.845 108.317 14.535 108.985 13.917 C 109.599 13.298 109.878 12.422 109.878 11.288 L 109.878 2.988 L 113.334 2.988 Z" fill="rgb(17, 17, 17)"/>
  </g>
</svg>
