<?xml version="1.0" encoding="utf-8"?>
<!-- Generator: Adobe Illustrator 27.2.0, SVG Export Plug-In . SVG Version: 6.00 Build 0)  -->
<svg version="1.1" xmlns="http://www.w3.org/2000/svg" xmlns:xlink="http://www.w3.org/1999/xlink" x="0px" y="0px"
	 viewBox="0 0 361.9 279.4" style="enable-background:new 0 0 361.9 279.4;" xml:space="preserve">
<style type="text/css">
	.st0{fill:#FFFFFF;}
	.st1{display:none;}
	.st2{display:inline;}
</style>
<g id="Logo_W">
	<g>
		<g>
			<path class="st0" d="M184.5,99.8c-24.1-1.5-44,18.4-42.5,42.5c1.3,19.9,17.4,36.1,37.3,37.3c24.1,1.5,44-18.4,42.5-42.5
				C220.6,117.2,204.4,101,184.5,99.8z M184.5,159.5c-13.1,1.6-24.1-9.4-22.4-22.4c1.1-8.9,8.3-16.1,17.2-17.2
				c13.1-1.6,24.1,9.4,22.4,22.4C200.6,151.2,193.5,158.4,184.5,159.5z"/>
			<polygon class="st0" points="149.1,79.7 121.9,79.7 81.9,139.7 121.9,199.7 149.1,199.7 109.1,139.7 			"/>
			<polygon class="st0" points="214.8,199.7 241.9,199.7 281.9,139.7 241.9,79.7 214.8,79.7 254.8,139.7 			"/>
		</g>
	</g>
</g>
<g id="TM_W" class="st1">
	<g class="st2">
		<path class="st0" d="M298.2,79.3v4.1l-5.8,0v16.2h-4.7V83.5h-5.8v-4.1L298.2,79.3z"/>
		<path class="st0" d="M321.9,79.3v20.3h-4.7V84.4l-3.9,15.2h-4.9l-3.9-15.2v15.2h-4.7V79.3h7l4.1,15.3l4.1-15.3H321.9z"/>
	</g>
</g>
<g id="LOGO_K" class="st1">
	<g class="st2">
		<g>
			<path d="M184.5,99.8c-24.1-1.5-44,18.4-42.5,42.5c1.3,19.9,17.4,36.1,37.3,37.3c24.1,1.5,44-18.4,42.5-42.5
				C220.6,117.2,204.4,101,184.5,99.8z M184.5,159.5c-13.1,1.6-24.1-9.4-22.4-22.4c1.1-8.9,8.3-16.1,17.2-17.2
				c13.1-1.6,24.1,9.4,22.4,22.4C200.6,151.2,193.5,158.4,184.5,159.5z"/>
			<polygon points="149.1,79.7 121.9,79.7 81.9,139.7 121.9,199.7 149.1,199.7 109.1,139.7 			"/>
			<polygon points="214.8,199.7 241.9,199.7 281.9,139.7 241.9,79.7 214.8,79.7 254.8,139.7 			"/>
		</g>
	</g>
</g>
<g id="TM_K" class="st1">
	<g class="st2">
		<path d="M298.2,79.3v4.1l-5.8,0v16.2h-4.7V83.5h-5.8v-4.1L298.2,79.3z"/>
		<path d="M321.9,79.3v20.3h-4.7V84.4l-3.9,15.2h-4.9l-3.9-15.2v15.2h-4.7V79.3h7l4.1,15.3l4.1-15.3H321.9z"/>
	</g>
</g>
</svg>
