<?xml version="1.0" encoding="utf-8"?>
<!-- Generator: Adobe Illustrator 27.2.0, SVG Export Plug-In . SVG Version: 6.00 Build 0)  -->
<svg version="1.1" xmlns="http://www.w3.org/2000/svg" xmlns:xlink="http://www.w3.org/1999/xlink" x="0px" y="0px"
	 viewBox="0 0 440 439.9" style="enable-background:new 0 0 440 439.9;" xml:space="preserve">
<style type="text/css">
	.st0{fill:#FFFFFF;}
	.st1{display:none;}
	.st2{display:inline;}
</style>
<g id="Logo_W">
	<circle class="st0" cx="220" cy="219.7" r="140"/>
	<g>
		<g>
			<path d="M222.6,179.9c-24.1-1.5-44,18.4-42.5,42.5c1.3,19.9,17.4,36.1,37.3,37.3c24.1,1.5,44-18.4,42.5-42.5
				C258.7,197.4,242.5,181.2,222.6,179.9z M222.6,239.7c-13.1,1.6-24.1-9.4-22.4-22.4c1.1-8.9,8.3-16.1,17.2-17.2
				c13.1-1.6,24.1,9.4,22.4,22.4C238.7,231.4,231.5,238.6,222.6,239.7z"/>
			<polygon points="187.1,159.9 160,159.9 120,219.9 160,279.9 187.1,279.9 147.1,219.9 			"/>
			<polygon points="252.9,279.9 280,279.9 320,219.9 280,159.9 252.9,159.9 292.9,219.9 			"/>
		</g>
	</g>
</g>
<g id="TM_W" class="st1">
	<g class="st2">
		<path class="st0" d="M376.2,79.7v4.1h-5.8l0,16.2l-4.7,0V83.8H360v-4.1H376.2z"/>
		<path class="st0" d="M400,79.7l0,20.3h-4.7V84.8l-3.9,15.2h-4.9l-3.9-15.2V100h-4.7V79.7h7L389,95l4.1-15.3L400,79.7z"/>
	</g>
</g>
<g id="LOGO_K" class="st1">
	<circle class="st2" cx="220" cy="219.7" r="140"/>
	<g class="st2">
		<g>
			<path class="st0" d="M222.6,179.9c-24.1-1.5-44,18.4-42.5,42.5c1.3,19.9,17.4,36.1,37.3,37.3c24.1,1.5,44-18.4,42.5-42.5
				C258.7,197.4,242.5,181.2,222.6,179.9z M222.6,239.7c-13.1,1.6-24.1-9.4-22.4-22.4c1.1-8.9,8.3-16.1,17.2-17.2
				c13.1-1.6,24.1,9.4,22.4,22.4C238.7,231.4,231.5,238.6,222.6,239.7z"/>
			<polygon class="st0" points="187.1,159.9 160,159.9 120,219.9 160,279.9 187.1,279.9 147.1,219.9 			"/>
			<polygon class="st0" points="252.9,279.9 280,279.9 320,219.9 280,159.9 252.9,159.9 292.9,219.9 			"/>
		</g>
	</g>
</g>
<g id="TM_K" class="st1">
	<g class="st2">
		<path d="M376.2,79.7v4.1h-5.8l0,16.2l-4.7,0V83.8H360v-4.1H376.2z"/>
		<path d="M400,79.7l0,20.3h-4.7V84.8l-3.9,15.2h-4.9l-3.9-15.2V100h-4.7V79.7h7L389,95l4.1-15.3L400,79.7z"/>
	</g>
</g>
</svg>
