<svg width="208" height="47" viewBox="0 0 208 47" xmlns="http://www.w3.org/2000/svg">
  <path d="m185.14 43.45a2 2 0 0 1-2 2h-5.31a2 2 0 0 1-2-2v-40.83a2 2 0 0 1 2-2h5.31a2 2 0 0 1 2 2v13.83c2.05-2.44 4.35-3.65 8.64-3.65 7.23 0 11.26 5.05 11.26 15v2.88c0 10.18-4.35 15.43-11.26 15.43-3.9 0-6.53-0.9-8.64-3.65zm-0.09-11c0 2.88 1.35 5.95 5.32 5.95s5.31-3.07 5.31-5.95v-6c0-2.88-1.35-6-5.31-6s-5.32 3.13-5.32 6zm-14.19 11a2 2 0 0 1-2 2h-4.55a2 2 0 0 1-2-2v-1c-1.22 2.37-4.22 3.65-7.3 3.65h-0.7c-4.8 0-10.37-2-10.37-10 0-10.68 11.46-10 14.15-10h4.22v-1.1c0-3.71-2.43-4.54-4.93-4.54-2.94 0-3.39 1.41-3.77 2.49a1.48 1.48 0 0 1-1.48 1.16h-5.56a1.41 1.41 0 0 1-1.48-1.41 5.76 5.76 0 0 1 0.2-1.22c0.83-2.81 2.36-8.7 12.09-8.7 10.62 0 13.44 5.76 13.44 12.48zm-12.41-11c-2.69 0-6 0-6 3.64 0 2.75 2.37 2.95 4 2.95h0.76c5 0 5.06-2.5 5.06-5.63v-1zm-17.03 11a2 2 0 0 1-2 2h-22.3a2 2 0 0 1-2-2v-40.83a2 2 0 0 1 2-2h5.31a2 2 0 0 1 2 2v34.11h15a2 2 0 0 1 2 2zm-39.66 1.99a2 2 0 0 1-2-2v-40.82a2 2 0 0 1 2-2h5.31a2 2 0 0 1 2 2v40.83a2 2 0 0 1-2 2zm-15.36 0a2 2 0 0 1-2-2v-40.82a2 2 0 0 1 2-2h5.31a2 2 0 0 1 2 2v40.83a2 2 0 0 1-2 2zm-12.74-45.44a5.06 5.06 0 0 1 5.34 5.25 5.28 5.28 0 0 1-10.55 0 5 5 0 0 1 5.21-5.25zm-2.66 45.44a2 2 0 0 1-2-2v-28a2 2 0 0 1 2-2h5.31a2 2 0 0 1 2 2v28a2 2 0 0 1-2 2zm-26.9 0h-5.32a2 2 0 0 1-2-2v-40.82a2 2 0 0 1 2-2h5.32a2 2 0 0 1 2 2v23l9.26-10.62c1.09-1.28 1.79-1.53 2.49-1.53h6.66a1.34 1.34 0 0 1 1.34 1.47c0 0.7-0.64 1.54-1.73 2.69l-8.31 9.15 9.19 14.75a7 7 0 0 1 1.17 2.47 1.34 1.34 0 0 1-1.4 1.41h-6.77a2.71 2.71 0 0 1-2.24-1.54l-6.61-10.87-3.07 3.59v6.84a2 2 0 0 1-1.98 2.01zm-19.01-31.11c-1.09 0-1.73-0.57-2.05-1.79-0.64-2.11-2-4.48-6.15-4.48s-6.71 0.9-6.71 4.42c0 8.19 22.82 2.69 22.82 20.35 0 9.79-8.13 13.25-16.32 13.25-11.56 0-16.68-7.75-16.68-13.76a2 2 0 0 1 2-2h5.17a2 2 0 0 1 1.83 1.74c0.28 1.22 0.86 5.94 7.7 5.94 5 0 7-1.34 7-5.18 0.04-8.89-22.8-3.32-22.8-20.34 0-7.48 5.1-12.48 16.1-12.48 10 0 15.3 6 15.3 12.35a2 2 0 0 1-2 2z" fill="#fff"></path>
</svg>