<?xml version="1.0" encoding="utf-8"?>
<!-- Generator: Adobe Illustrator 27.2.0, SVG Export Plug-In . SVG Version: 6.00 Build 0)  -->
<svg version="1.1" xmlns="http://www.w3.org/2000/svg" xmlns:xlink="http://www.w3.org/1999/xlink" x="0px" y="0px"
	 viewBox="0 0 980 279.4" style="enable-background:new 0 0 980 279.4;" xml:space="preserve">
<style type="text/css">
	.st0{fill:#FFFFFF;}
</style>
<g id="Logo_W">
	<g>
		<path class="st0" d="M182.6,99.4c-24.1-1.5-44,18.4-42.5,42.5c1.3,19.9,17.4,36.1,37.3,37.3c24.1,1.5,44-18.4,42.5-42.5
			C218.7,116.8,202.5,100.6,182.6,99.4z M182.6,159.1c-13.1,1.6-24.1-9.4-22.4-22.4c1.1-8.9,8.3-16.1,17.2-17.2
			c13.1-1.6,24.1,9.4,22.4,22.4C198.7,150.8,191.5,158,182.6,159.1z"/>
		<path class="st0" d="M428.8,79.3l-39,97.8l-38.5-97.8H320l0,120h20l0-97.5l6.7,16l31.2,81.5h24l31.5-82l6.7-15.5l0,97.5h20l0-120
			H428.8z"/>
		<path class="st0" d="M540,105.4v53.3c0,13.8-7.5,24.6-20.6,24.6c-11.9,0-19.4-7.8-19.4-20.9v-23.1v-33.9h-20v61.1
			c0,21.3,13.7,34.7,33.7,34.7c12.2,0,22-6.4,27.5-17.4l1.6,15.5H560v-93.9H540z"/>
		<path class="st0" d="M866.3,103.5c-12.2,0-22,6.4-27.5,17.4l-1.6-15.5H820v93.8h20V146c0-13.8,7.5-24.6,20.6-24.6
			c11.9,0,19.4,7.8,19.4,20.9v57h20v-61.1C900,116.9,886.3,103.5,866.3,103.5z"/>
		<path class="st0" d="M766.3,103.5c-12.2,0-22,6.4-27.5,17.4l-1.6-15.5H720v93.8h20V146c0-13.8,7.5-24.6,20.6-24.6
			c11.9,0,19.4,7.8,19.4,20.9v57h20v-61.1C800,116.9,786.3,103.5,766.3,103.5z"/>
		<path class="st0" d="M626.3,103.5c-12.2,0-22,6.4-27.5,17.4l-1.6-15.5H580v93.8h20V146c0-13.8,7.5-24.6,20.6-24.6
			c11.9,0,19.4,7.8,19.4,20.9v57h20v-61.1C660,116.9,646.3,103.5,626.3,103.5z"/>
		<circle class="st0" cx="690" cy="84.6" r="12.2"/>
		<polygon class="st0" points="147.1,79.3 120,79.3 80,139.3 120,199.3 147.1,199.3 107.1,139.3 		"/>
		<polygon class="st0" points="212.9,199.3 240,199.3 280,139.3 240,79.3 212.9,79.3 252.9,139.3 		"/>
		<polygon class="st0" points="700,104.1 700,199.3 680,199.3 680,122.7 666.1,121.2 666.1,104.1 		"/>
	</g>
</g>
<g id="TM_W">
	<g>
		<path class="st0" d="M916.2,79.4v4.1h-5.8l0,16.2l-4.7,0V83.5l-5.8,0v-4.1L916.2,79.4z"/>
		<path class="st0" d="M940,79.4v20.3h-4.7l0-15.2l-3.9,15.2l-4.9,0l-3.9-15.2v15.2h-4.7V79.4h7l4.1,15.3l4.1-15.3H940z"/>
	</g>
</g>
<g id="LOGO_K">
	<g>
		<path d="M182.6,99.4c-24.1-1.5-44,18.4-42.5,42.5c1.3,19.9,17.4,36.1,37.3,37.3c24.1,1.5,44-18.4,42.5-42.5
			C218.7,116.8,202.5,100.6,182.6,99.4z M182.6,159.1c-13.1,1.6-24.1-9.4-22.4-22.4c1.1-8.9,8.3-16.1,17.2-17.2
			c13.1-1.6,24.1,9.4,22.4,22.4C198.7,150.8,191.5,158,182.6,159.1z"/>
		<path d="M428.8,79.3l-39,97.8l-38.5-97.8H320l0,120h20l0-97.5l6.7,16l31.2,81.5h24l31.5-82l6.7-15.5l0,97.5h20l0-120H428.8z"/>
		<path d="M540,105.4v53.3c0,13.8-7.5,24.6-20.6,24.6c-11.9,0-19.4-7.8-19.4-20.9v-23.1v-33.9h-20v61.1c0,21.3,13.7,34.7,33.7,34.7
			c12.2,0,22-6.4,27.5-17.4l1.6,15.5H560v-93.9H540z"/>
		<path d="M866.3,103.5c-12.2,0-22,6.4-27.5,17.4l-1.6-15.5H820v93.8h20V146c0-13.8,7.5-24.6,20.6-24.6c11.9,0,19.4,7.8,19.4,20.9
			v57h20v-61.1C900,116.9,886.3,103.5,866.3,103.5z"/>
		<path d="M766.3,103.5c-12.2,0-22,6.4-27.5,17.4l-1.6-15.5H720v93.8h20V146c0-13.8,7.5-24.6,20.6-24.6c11.9,0,19.4,7.8,19.4,20.9
			v57h20v-61.1C800,116.9,786.3,103.5,766.3,103.5z"/>
		<path d="M626.3,103.5c-12.2,0-22,6.4-27.5,17.4l-1.6-15.5H580v93.8h20V146c0-13.8,7.5-24.6,20.6-24.6c11.9,0,19.4,7.8,19.4,20.9
			v57h20v-61.1C660,116.9,646.3,103.5,626.3,103.5z"/>
		<circle cx="690" cy="84.6" r="12.2"/>
		<polygon points="147.1,79.3 120,79.3 80,139.3 120,199.3 147.1,199.3 107.1,139.3 		"/>
		<polygon points="212.9,199.3 240,199.3 280,139.3 240,79.3 212.9,79.3 252.9,139.3 		"/>
		<polygon points="700,104.1 700,199.3 680,199.3 680,122.7 666.1,121.2 666.1,104.1 		"/>
	</g>
</g>
<g id="TM_K">
	<g>
		<path d="M916.2,79.4v4.1h-5.8l0,16.2l-4.7,0V83.5l-5.8,0v-4.1L916.2,79.4z"/>
		<path d="M940,79.4v20.3h-4.7l0-15.2l-3.9,15.2l-4.9,0l-3.9-15.2v15.2h-4.7V79.4h7l4.1,15.3l4.1-15.3H940z"/>
	</g>
</g>
</svg>
