<?xml version="1.0" encoding="utf-8"?>
<!-- Generator: Adobe Illustrator 27.2.0, SVG Export Plug-In . SVG Version: 6.00 Build 0)  -->
<svg version="1.1" xmlns="http://www.w3.org/2000/svg" xmlns:xlink="http://www.w3.org/1999/xlink" x="0px" y="0px"
	 viewBox="0 0 740 479.8" style="enable-background:new 0 0 740 479.8;" xml:space="preserve">
<style type="text/css">
	.st0{fill:#FFFFFF;}
	.st1{display:none;}
	.st2{display:inline;}
</style>
<g id="Logo_W">
	<g>
		<g>
			<g>
				<circle class="st0" cx="450" cy="285.1" r="12.2"/>
			</g>
			<path class="st0" d="M188.8,279.8l-39,97.8l-38.5-97.8H80l0,120h20l0-97.5l6.7,16l31.2,81.5h24l31.5-82l6.7-15.5l0,97.5h20l0-120
				H188.8z"/>
			<path class="st0" d="M300,305.9v53.3c0,13.8-7.5,24.6-20.6,24.6c-11.9,0-19.4-7.8-19.4-20.9v-57h-20V367
				c0,21.3,13.7,34.7,33.7,34.7c12.2,0,22-6.4,27.5-17.4l1.6,15.5H320v-93.9H300z"/>
			<path class="st0" d="M626.3,304c-12.2,0-22,6.4-27.5,17.4l-1.6-15.5H580v93.8h20v-53.3c0-13.8,7.5-24.6,20.6-24.6
				c11.9,0,19.4,7.8,19.4,20.9v57h20v-61.1C660,317.3,646.3,304,626.3,304z"/>
			<path class="st0" d="M526.3,304c-12.2,0-22,6.4-27.5,17.4l-1.6-15.5H480v93.8h20v-53.3c0-13.8,7.5-24.6,20.6-24.6
				c11.9,0,19.4,7.8,19.4,20.9v57h20v-61.1C560,317.3,546.3,304,526.3,304z"/>
			<path class="st0" d="M386.3,304c-12.2,0-22,6.4-27.5,17.4l-1.6-15.5H340v93.8h20v-53.3c0-13.8,7.5-24.6,20.6-24.6
				c11.9,0,19.4,7.8,19.4,20.9v57h20v-61.1C420,317.3,406.3,304,386.3,304z"/>
		</g>
		<g>
			<path class="st0" d="M362.6,99.5c-24.1-1.5-44,18.4-42.5,42.5c1.3,19.9,17.4,36.1,37.3,37.3c24.1,1.5,44-18.4,42.5-42.5
				C398.7,117,382.5,100.8,362.6,99.5z M362.6,159.3c-13.1,1.6-24.1-9.4-22.4-22.4c1.1-8.9,8.3-16.1,17.2-17.2
				c13.1-1.6,24.1,9.4,22.4,22.4C378.7,151,371.5,158.2,362.6,159.3z"/>
			<polygon class="st0" points="327.1,79.5 300,79.5 260,139.5 300,199.5 327.1,199.5 287.1,139.5 			"/>
			<polygon class="st0" points="392.9,199.5 420,199.5 460,139.5 420,79.5 392.9,79.5 432.9,139.5 			"/>
		</g>
		<polygon class="st0" points="460,304.6 460,399.8 440,399.8 440,323.1 426.1,321.7 426.1,304.6 		"/>
	</g>
</g>
<g id="TM_W">
	<g>
		<path class="st0" d="M676.2,279.7v4.1l-5.8,0V300h-4.7v-16.2H660v-4.1H676.2z"/>
		<path class="st0" d="M700,279.7V300h-4.7v-15.2l-3.9,15.2h-4.9l-3.9-15.2V300h-4.7v-20.3h7l4.1,15.3l4.1-15.3H700z"/>
	</g>
</g>
<g id="LOGO_K" class="st1">
	<g class="st2">
		<g>
			<g>
				<circle cx="450" cy="285.1" r="12.2"/>
			</g>
			<path d="M188.8,279.8l-39,97.8l-38.5-97.8H80l0,120h20l0-97.5l6.7,16l31.2,81.5h24l31.5-82l6.7-15.5l0,97.5h20l0-120H188.8z"/>
			<path d="M300,305.9v53.3c0,13.8-7.5,24.6-20.6,24.6c-11.9,0-19.4-7.8-19.4-20.9v-57h-20V367c0,21.3,13.7,34.7,33.7,34.7
				c12.2,0,22-6.4,27.5-17.4l1.6,15.5H320v-93.9H300z"/>
			<path d="M626.3,304c-12.2,0-22,6.4-27.5,17.4l-1.6-15.5H580v93.8h20v-53.3c0-13.8,7.5-24.6,20.6-24.6c11.9,0,19.4,7.8,19.4,20.9
				v57h20v-61.1C660,317.3,646.3,304,626.3,304z"/>
			<path d="M526.3,304c-12.2,0-22,6.4-27.5,17.4l-1.6-15.5H480v93.8h20v-53.3c0-13.8,7.5-24.6,20.6-24.6c11.9,0,19.4,7.8,19.4,20.9
				v57h20v-61.1C560,317.3,546.3,304,526.3,304z"/>
			<path d="M386.3,304c-12.2,0-22,6.4-27.5,17.4l-1.6-15.5H340v93.8h20v-53.3c0-13.8,7.5-24.6,20.6-24.6c11.9,0,19.4,7.8,19.4,20.9
				v57h20v-61.1C420,317.3,406.3,304,386.3,304z"/>
		</g>
		<g>
			<path d="M362.6,99.5c-24.1-1.5-44,18.4-42.5,42.5c1.3,19.9,17.4,36.1,37.3,37.3c24.1,1.5,44-18.4,42.5-42.5
				C398.7,117,382.5,100.8,362.6,99.5z M362.6,159.3c-13.1,1.6-24.1-9.4-22.4-22.4c1.1-8.9,8.3-16.1,17.2-17.2
				c13.1-1.6,24.1,9.4,22.4,22.4C378.7,151,371.5,158.2,362.6,159.3z"/>
			<polygon points="327.1,79.5 300,79.5 260,139.5 300,199.5 327.1,199.5 287.1,139.5 			"/>
			<polygon points="392.9,199.5 420,199.5 460,139.5 420,79.5 392.9,79.5 432.9,139.5 			"/>
		</g>
		<polygon points="460,304.6 460,399.8 440,399.8 440,323.1 426.1,321.7 426.1,304.6 		"/>
	</g>
</g>
<g id="TM_K" class="st1">
	<g class="st2">
		<path d="M676.2,279.7v4.1l-5.8,0V300h-4.7v-16.2H660v-4.1H676.2z"/>
		<path d="M700,279.7V300h-4.7v-15.2l-3.9,15.2h-4.9l-3.9-15.2V300h-4.7v-20.3h7l4.1,15.3l4.1-15.3H700z"/>
	</g>
</g>
</svg>
