<?xml version="1.0" encoding="utf-8"?>
<!-- Generator: Adobe Illustrator 27.2.0, SVG Export Plug-In . SVG Version: 6.00 Build 0)  -->
<svg version="1.1" xmlns="http://www.w3.org/2000/svg" xmlns:xlink="http://www.w3.org/1999/xlink" x="0px" y="0px"
	 viewBox="0 0 440 439.9" style="enable-background:new 0 0 440 439.9;" xml:space="preserve">
<style type="text/css">
	.st0{fill:#FFFFFF;}
	.st1{display:none;}
	.st2{display:inline;}
</style>
<g id="Logo_W">
	<g>
		<path class="st0" d="M182.6-1574.7c-24.1-1.5-44,18.4-42.5,42.5c1.3,19.9,17.4,36.1,37.3,37.3c24.1,1.5,44-18.4,42.5-42.5
			C218.7-1557.3,202.5-1573.4,182.6-1574.7z M182.6-1514.9c-13.1,1.6-24.1-9.4-22.4-22.4c1.1-8.9,8.3-16.1,17.2-17.2
			c13.1-1.6,24.1,9.4,22.4,22.4C198.7-1523.3,191.5-1516.1,182.6-1514.9z"/>
		<path class="st0" d="M428.8-1594.8l-39,97.8l-38.5-97.8H320l0,120h20l0-97.5l6.7,16l31.2,81.5h24l31.5-82l6.7-15.5l0,97.5h20
			l0-120H428.8z"/>
		<path class="st0" d="M540-1568.6v53.3c0,13.8-7.5,24.6-20.6,24.6c-11.9,0-19.4-7.8-19.4-20.9v-23.1v-33.9h-20v61.1
			c0,21.3,13.7,34.7,33.7,34.7c12.2,0,22-6.4,27.5-17.4l1.6,15.5H560v-93.9H540z"/>
		<path class="st0" d="M866.3-1570.6c-12.2,0-22,6.4-27.5,17.4l-1.6-15.5H820v93.8h20v-53.3c0-13.8,7.5-24.6,20.6-24.6
			c11.9,0,19.4,7.8,19.4,20.9v57h20v-61.1C900-1557.2,886.3-1570.6,866.3-1570.6z"/>
		<path class="st0" d="M766.3-1570.6c-12.2,0-22,6.4-27.5,17.4l-1.6-15.5H720v93.8h20v-53.3c0-13.8,7.5-24.6,20.6-24.6
			c11.9,0,19.4,7.8,19.4,20.9v57h20v-61.1C800-1557.2,786.3-1570.6,766.3-1570.6z"/>
		<path class="st0" d="M626.3-1570.6c-12.2,0-22,6.4-27.5,17.4l-1.6-15.5H580v93.8h20v-53.3c0-13.8,7.5-24.6,20.6-24.6
			c11.9,0,19.4,7.8,19.4,20.9v57h20v-61.1C660-1557.2,646.3-1570.6,626.3-1570.6z"/>
		<circle class="st0" cx="690" cy="-1589.5" r="12.2"/>
		<polygon class="st0" points="147.1,-1594.8 120,-1594.8 80,-1534.8 120,-1474.8 147.1,-1474.8 107.1,-1534.8 		"/>
		<polygon class="st0" points="212.9,-1474.8 240,-1474.8 280,-1534.8 240,-1594.8 212.9,-1594.8 252.9,-1534.8 		"/>
		<polygon class="st0" points="700,-1569.9 700,-1474.8 680,-1474.8 680,-1551.4 666.1,-1552.8 666.1,-1569.9 		"/>
	</g>
	<circle class="st0" cx="220" cy="219.7" r="140"/>
	<g>
		<g>
			<path class="st0" d="M184.5-374.6c-24.1-1.5-44,18.4-42.5,42.5c1.3,19.9,17.4,36.1,37.3,37.3c24.1,1.5,44-18.4,42.5-42.5
				C220.6-357.2,204.4-373.4,184.5-374.6z M184.5-314.9c-13.1,1.6-24.1-9.4-22.4-22.4c1.1-8.9,8.3-16.1,17.2-17.2
				c13.1-1.6,24.1,9.4,22.4,22.4C200.6-323.2,193.5-316,184.5-314.9z"/>
			<polygon class="st0" points="149.1,-394.7 121.9,-394.7 81.9,-334.7 121.9,-274.7 149.1,-274.7 109.1,-334.7 			"/>
			<polygon class="st0" points="214.8,-274.7 241.9,-274.7 281.9,-334.7 241.9,-394.7 214.8,-394.7 254.8,-334.7 			"/>
		</g>
	</g>
	<g>
		<g>
			<path d="M222.6,179.9c-24.1-1.5-44,18.4-42.5,42.5c1.3,19.9,17.4,36.1,37.3,37.3c24.1,1.5,44-18.4,42.5-42.5
				C258.7,197.4,242.5,181.2,222.6,179.9z M222.6,239.7c-13.1,1.6-24.1-9.4-22.4-22.4c1.1-8.9,8.3-16.1,17.2-17.2
				c13.1-1.6,24.1,9.4,22.4,22.4C238.7,231.4,231.5,238.6,222.6,239.7z"/>
			<polygon points="187.1,159.9 160,159.9 120,219.9 160,279.9 187.1,279.9 147.1,219.9 			"/>
			<polygon points="252.9,279.9 280,279.9 320,219.9 280,159.9 252.9,159.9 292.9,219.9 			"/>
		</g>
	</g>
	<g>
		<g>
			<g>
				<circle class="st0" cx="450" cy="-850.9" r="12.2"/>
			</g>
			<path class="st0" d="M188.8-856.1l-39,97.8l-38.5-97.8H80l0,120h20l0-97.5l6.7,16l31.2,81.5h24l31.5-82l6.7-15.5l0,97.5h20l0-120
				H188.8z"/>
			<path class="st0" d="M300-830v53.3c0,13.8-7.5,24.6-20.6,24.6c-11.9,0-19.4-7.8-19.4-20.9v-57h-20v61.1
				c0,21.3,13.7,34.7,33.7,34.7c12.2,0,22-6.4,27.5-17.4l1.6,15.5H320V-830H300z"/>
			<path class="st0" d="M626.3-831.9c-12.2,0-22,6.4-27.5,17.4l-1.6-15.5H580v93.8h20v-53.3c0-13.8,7.5-24.6,20.6-24.6
				c11.9,0,19.4,7.8,19.4,20.9v57h20v-61.1C660-818.6,646.3-831.9,626.3-831.9z"/>
			<path class="st0" d="M526.3-831.9c-12.2,0-22,6.4-27.5,17.4l-1.6-15.5H480v93.8h20v-53.3c0-13.8,7.5-24.6,20.6-24.6
				c11.9,0,19.4,7.8,19.4,20.9v57h20v-61.1C560-818.6,546.3-831.9,526.3-831.9z"/>
			<path class="st0" d="M386.3-831.9c-12.2,0-22,6.4-27.5,17.4l-1.6-15.5H340v93.8h20v-53.3c0-13.8,7.5-24.6,20.6-24.6
				c11.9,0,19.4,7.8,19.4,20.9v57h20v-61.1C420-818.6,406.3-831.9,386.3-831.9z"/>
		</g>
		<g>
			<path class="st0" d="M362.6-1036.4c-24.1-1.5-44,18.4-42.5,42.5c1.3,19.9,17.4,36.1,37.3,37.3c24.1,1.5,44-18.4,42.5-42.5
				C398.7-1019,382.5-1035.1,362.6-1036.4z M362.6-976.6c-13.1,1.6-24.1-9.4-22.4-22.4c1.1-8.9,8.3-16.1,17.2-17.2
				c13.1-1.6,24.1,9.4,22.4,22.4C378.7-984.9,371.5-977.8,362.6-976.6z"/>
			<polygon class="st0" points="327.1,-1056.5 300,-1056.5 260,-996.5 300,-936.5 327.1,-936.5 287.1,-996.5 			"/>
			<polygon class="st0" points="392.9,-936.5 420,-936.5 460,-996.5 420,-1056.5 392.9,-1056.5 432.9,-996.5 			"/>
		</g>
		<polygon class="st0" points="460,-831.4 460,-736.2 440,-736.2 440,-812.8 426.1,-814.2 426.1,-831.4 		"/>
	</g>
</g>
<g id="TM_W">
	<g>
		<path class="st0" d="M916.2-1594.7v4.1h-5.8l0,16.2h-4.7v-16.2H900v-4.1H916.2z"/>
		<path class="st0" d="M940-1594.7v20.3h-4.7l0-15.2l-3.9,15.2h-4.9l-3.9-15.2v15.2h-4.7v-20.3h7l4.1,15.3l4.1-15.3H940z"/>
	</g>
	<g>
		<path class="st0" d="M298.2-395.1v4.1h-5.8v16.2h-4.7v-16.2h-5.8v-4.1H298.2z"/>
		<path class="st0" d="M321.9-395.1v20.3h-4.7V-390l-3.9,15.2h-4.9l-3.9-15.2v15.2h-4.7v-20.3h7l4.1,15.3l4.1-15.3H321.9z"/>
	</g>
	<g>
		<path class="st0" d="M676.2-856.2v4.1h-5.8v16.2h-4.7v-16.2H660v-4.1H676.2z"/>
		<path class="st0" d="M700-856.2v20.3h-4.7v-15.2l-3.9,15.2h-4.9l-3.9-15.2v15.2h-4.7v-20.3h7l4.1,15.3l4.1-15.3H700z"/>
	</g>
	<g>
		<path class="st0" d="M376.2,79.7v4.1h-5.8l0,16.2l-4.7,0V83.8H360v-4.1H376.2z"/>
		<path class="st0" d="M400,79.7l0,20.3h-4.7V84.8l-3.9,15.2h-4.9l-3.9-15.2V100h-4.7V79.7h7L389,95l4.1-15.3L400,79.7z"/>
	</g>
</g>
<g id="LOGO_K" class="st1">
	<g class="st2">
		<path d="M182.6-1574.7c-24.1-1.5-44,18.4-42.5,42.5c1.3,19.9,17.4,36.1,37.3,37.3c24.1,1.5,44-18.4,42.5-42.5
			C218.7-1557.3,202.5-1573.4,182.6-1574.7z M182.6-1514.9c-13.1,1.6-24.1-9.4-22.4-22.4c1.1-8.9,8.3-16.1,17.2-17.2
			c13.1-1.6,24.1,9.4,22.4,22.4C198.7-1523.3,191.5-1516.1,182.6-1514.9z"/>
		<path d="M428.8-1594.8l-39,97.8l-38.5-97.8H320l0,120h20l0-97.5l6.7,16l31.2,81.5h24l31.5-82l6.7-15.5l0,97.5h20l0-120H428.8z"/>
		<path d="M540-1568.6v53.3c0,13.8-7.5,24.6-20.6,24.6c-11.9,0-19.4-7.8-19.4-20.9v-23.1v-33.9h-20v61.1c0,21.3,13.7,34.7,33.7,34.7
			c12.2,0,22-6.4,27.5-17.4l1.6,15.5H560v-93.9H540z"/>
		<path d="M866.3-1570.6c-12.2,0-22,6.4-27.5,17.4l-1.6-15.5H820v93.8h20v-53.3c0-13.8,7.5-24.6,20.6-24.6
			c11.9,0,19.4,7.8,19.4,20.9v57h20v-61.1C900-1557.2,886.3-1570.6,866.3-1570.6z"/>
		<path d="M766.3-1570.6c-12.2,0-22,6.4-27.5,17.4l-1.6-15.5H720v93.8h20v-53.3c0-13.8,7.5-24.6,20.6-24.6
			c11.9,0,19.4,7.8,19.4,20.9v57h20v-61.1C800-1557.2,786.3-1570.6,766.3-1570.6z"/>
		<path d="M626.3-1570.6c-12.2,0-22,6.4-27.5,17.4l-1.6-15.5H580v93.8h20v-53.3c0-13.8,7.5-24.6,20.6-24.6
			c11.9,0,19.4,7.8,19.4,20.9v57h20v-61.1C660-1557.2,646.3-1570.6,626.3-1570.6z"/>
		<circle cx="690" cy="-1589.5" r="12.2"/>
		<polygon points="147.1,-1594.8 120,-1594.8 80,-1534.8 120,-1474.8 147.1,-1474.8 107.1,-1534.8 		"/>
		<polygon points="212.9,-1474.8 240,-1474.8 280,-1534.8 240,-1594.8 212.9,-1594.8 252.9,-1534.8 		"/>
		<polygon points="700,-1569.9 700,-1474.8 680,-1474.8 680,-1551.4 666.1,-1552.8 666.1,-1569.9 		"/>
	</g>
	<circle class="st2" cx="220" cy="219.7" r="140"/>
	<g class="st2">
		<g>
			<path d="M184.5-374.6c-24.1-1.5-44,18.4-42.5,42.5c1.3,19.9,17.4,36.1,37.3,37.3c24.1,1.5,44-18.4,42.5-42.5
				C220.6-357.2,204.4-373.4,184.5-374.6z M184.5-314.9c-13.1,1.6-24.1-9.4-22.4-22.4c1.1-8.9,8.3-16.1,17.2-17.2
				c13.1-1.6,24.1,9.4,22.4,22.4C200.6-323.2,193.5-316,184.5-314.9z"/>
			<polygon points="149.1,-394.7 121.9,-394.7 81.9,-334.7 121.9,-274.7 149.1,-274.7 109.1,-334.7 			"/>
			<polygon points="214.8,-274.7 241.9,-274.7 281.9,-334.7 241.9,-394.7 214.8,-394.7 254.8,-334.7 			"/>
		</g>
	</g>
	<g class="st2">
		<g>
			<path class="st0" d="M222.6,179.9c-24.1-1.5-44,18.4-42.5,42.5c1.3,19.9,17.4,36.1,37.3,37.3c24.1,1.5,44-18.4,42.5-42.5
				C258.7,197.4,242.5,181.2,222.6,179.9z M222.6,239.7c-13.1,1.6-24.1-9.4-22.4-22.4c1.1-8.9,8.3-16.1,17.2-17.2
				c13.1-1.6,24.1,9.4,22.4,22.4C238.7,231.4,231.5,238.6,222.6,239.7z"/>
			<polygon class="st0" points="187.1,159.9 160,159.9 120,219.9 160,279.9 187.1,279.9 147.1,219.9 			"/>
			<polygon class="st0" points="252.9,279.9 280,279.9 320,219.9 280,159.9 252.9,159.9 292.9,219.9 			"/>
		</g>
	</g>
	<g class="st2">
		<g>
			<g>
				<circle cx="450" cy="-850.9" r="12.2"/>
			</g>
			<path d="M188.8-856.1l-39,97.8l-38.5-97.8H80l0,120h20l0-97.5l6.7,16l31.2,81.5h24l31.5-82l6.7-15.5l0,97.5h20l0-120H188.8z"/>
			<path d="M300-830v53.3c0,13.8-7.5,24.6-20.6,24.6c-11.9,0-19.4-7.8-19.4-20.9v-57h-20v61.1c0,21.3,13.7,34.7,33.7,34.7
				c12.2,0,22-6.4,27.5-17.4l1.6,15.5H320V-830H300z"/>
			<path d="M626.3-831.9c-12.2,0-22,6.4-27.5,17.4l-1.6-15.5H580v93.8h20v-53.3c0-13.8,7.5-24.6,20.6-24.6
				c11.9,0,19.4,7.8,19.4,20.9v57h20v-61.1C660-818.6,646.3-831.9,626.3-831.9z"/>
			<path d="M526.3-831.9c-12.2,0-22,6.4-27.5,17.4l-1.6-15.5H480v93.8h20v-53.3c0-13.8,7.5-24.6,20.6-24.6
				c11.9,0,19.4,7.8,19.4,20.9v57h20v-61.1C560-818.6,546.3-831.9,526.3-831.9z"/>
			<path d="M386.3-831.9c-12.2,0-22,6.4-27.5,17.4l-1.6-15.5H340v93.8h20v-53.3c0-13.8,7.5-24.6,20.6-24.6
				c11.9,0,19.4,7.8,19.4,20.9v57h20v-61.1C420-818.6,406.3-831.9,386.3-831.9z"/>
		</g>
		<g>
			<path d="M362.6-1036.4c-24.1-1.5-44,18.4-42.5,42.5c1.3,19.9,17.4,36.1,37.3,37.3c24.1,1.5,44-18.4,42.5-42.5
				C398.7-1019,382.5-1035.1,362.6-1036.4z M362.6-976.6c-13.1,1.6-24.1-9.4-22.4-22.4c1.1-8.9,8.3-16.1,17.2-17.2
				c13.1-1.6,24.1,9.4,22.4,22.4C378.7-984.9,371.5-977.8,362.6-976.6z"/>
			<polygon points="327.1,-1056.5 300,-1056.5 260,-996.5 300,-936.5 327.1,-936.5 287.1,-996.5 			"/>
			<polygon points="392.9,-936.5 420,-936.5 460,-996.5 420,-1056.5 392.9,-1056.5 432.9,-996.5 			"/>
		</g>
		<polygon points="460,-831.4 460,-736.2 440,-736.2 440,-812.8 426.1,-814.2 426.1,-831.4 		"/>
	</g>
</g>
<g id="TM_K" class="st1">
	<g class="st2">
		<path d="M916.2-1594.7v4.1h-5.8l0,16.2h-4.7v-16.2H900v-4.1H916.2z"/>
		<path d="M940-1594.7v20.3h-4.7l0-15.2l-3.9,15.2h-4.9l-3.9-15.2v15.2h-4.7v-20.3h7l4.1,15.3l4.1-15.3H940z"/>
	</g>
	<g class="st2">
		<path d="M298.2-395.1v4.1h-5.8v16.2h-4.7v-16.2h-5.8v-4.1H298.2z"/>
		<path d="M321.9-395.1v20.3h-4.7V-390l-3.9,15.2h-4.9l-3.9-15.2v15.2h-4.7v-20.3h7l4.1,15.3l4.1-15.3H321.9z"/>
	</g>
	<g class="st2">
		<path d="M676.2-856.2v4.1h-5.8v16.2h-4.7v-16.2H660v-4.1H676.2z"/>
		<path d="M700-856.2v20.3h-4.7v-15.2l-3.9,15.2h-4.9l-3.9-15.2v15.2h-4.7v-20.3h7l4.1,15.3l4.1-15.3H700z"/>
	</g>
	<g class="st2">
		<path d="M376.2,79.7v4.1h-5.8l0,16.2l-4.7,0V83.8H360v-4.1H376.2z"/>
		<path d="M400,79.7l0,20.3h-4.7V84.8l-3.9,15.2h-4.9l-3.9-15.2V100h-4.7V79.7h7L389,95l4.1-15.3L400,79.7z"/>
	</g>
</g>
</svg>
